<mxfile host="app.diagrams.net" modified="2022-02-12T18:00:59.077Z" agent="5.0 (Macintosh; Intel Mac OS X 10_15_7) AppleWebKit/537.36 (KHTML, like Gecko) Chrome/97.0.4692.99 Safari/537.36" etag="0ZkE7K8nWV5DbXiCUfY6" version="16.2.4" type="github">
  <diagram id="WbJhTPnjyqn9dyQ66CPG" name="Page-1">
    <mxGraphModel dx="865" dy="577" grid="1" gridSize="10" guides="1" tooltips="1" connect="1" arrows="1" fold="1" page="1" pageScale="1" pageWidth="850" pageHeight="1100" math="0" shadow="0">
      <root>
        <mxCell id="0" />
        <mxCell id="1" parent="0" />
        <mxCell id="FG2dMoxavKA3f9Cgjogr-3" value="" style="edgeStyle=orthogonalEdgeStyle;rounded=0;orthogonalLoop=1;jettySize=auto;html=1;" edge="1" parent="1" source="FG2dMoxavKA3f9Cgjogr-1" target="FG2dMoxavKA3f9Cgjogr-2">
          <mxGeometry relative="1" as="geometry" />
        </mxCell>
        <mxCell id="FG2dMoxavKA3f9Cgjogr-1" value="Start" style="ellipse;whiteSpace=wrap;html=1;" vertex="1" parent="1">
          <mxGeometry x="350" y="40" width="120" height="80" as="geometry" />
        </mxCell>
        <mxCell id="FG2dMoxavKA3f9Cgjogr-5" value="" style="edgeStyle=orthogonalEdgeStyle;rounded=0;orthogonalLoop=1;jettySize=auto;html=1;" edge="1" parent="1" source="FG2dMoxavKA3f9Cgjogr-2" target="FG2dMoxavKA3f9Cgjogr-4">
          <mxGeometry relative="1" as="geometry" />
        </mxCell>
        <mxCell id="FG2dMoxavKA3f9Cgjogr-2" value="Fetch all eligible records for hier" style="whiteSpace=wrap;html=1;" vertex="1" parent="1">
          <mxGeometry x="350" y="160" width="120" height="60" as="geometry" />
        </mxCell>
        <mxCell id="FG2dMoxavKA3f9Cgjogr-8" value="" style="edgeStyle=orthogonalEdgeStyle;rounded=0;orthogonalLoop=1;jettySize=auto;html=1;" edge="1" parent="1" source="FG2dMoxavKA3f9Cgjogr-4" target="FG2dMoxavKA3f9Cgjogr-7">
          <mxGeometry relative="1" as="geometry" />
        </mxCell>
        <mxCell id="FG2dMoxavKA3f9Cgjogr-4" value="Check for visibility number &amp;amp; update&amp;nbsp;" style="whiteSpace=wrap;html=1;" vertex="1" parent="1">
          <mxGeometry x="350" y="260" width="120" height="60" as="geometry" />
        </mxCell>
        <mxCell id="FG2dMoxavKA3f9Cgjogr-7" value="End&amp;nbsp;" style="ellipse;whiteSpace=wrap;html=1;" vertex="1" parent="1">
          <mxGeometry x="350" y="400" width="120" height="60" as="geometry" />
        </mxCell>
      </root>
    </mxGraphModel>
  </diagram>
</mxfile>
